# xmcd CD database file
#
# Track frame offsets:
#	150
#	21060
#	40272
#	62467
#
# Disc length: 1110 seconds
#
# Revision: 0
# Processed by: cddbd v1.5.1PL0 Copyright (c) Steve Scherf et al.
# Submitted via: CDex 1.51
#
DISCID=27045404
DTITLE=竹井詩織里 - 君を知らない街へ
DYEAR=2005
DGENRE=JPop
TTITLE0=君を知らない街へ
TTITLE1=your warmth
TTITLE2=Reflection
TTITLE3=君を知らない街へ (Less Vocal)
EXTD=YEAR: 2005
EXTT0=
EXTT1=
EXTT2=
EXTT3=
PLAYORDER=
